<svg xmlns="http://www.w3.org/2000/svg" viewBox="0 0 100.759 30"><defs><style>.cls-1{fill:#1c1c1c}.cls-2{fill:#006aa5}</style></defs><g id="Group_1127" data-name="Group 1127" transform="translate(-72 -26)"><path id="Path_4226" data-name="Path 4226" class="cls-1" d="M117.507 433a1.512 1.512 0 0 1 1.137.483 1.608 1.608 0 0 1 .47 1.163 1.578 1.578 0 0 1-.47 1.15 1.594 1.594 0 0 1-2.274-.013 1.638 1.638 0 0 1-.47-1.176 1.606 1.606 0 0 1 1.607-1.607zm-1.268 4.13h2.522v10.036h-2.521V437.13zm7.305 0v1.111a4.689 4.689 0 0 1 1.477-1.019 4.332 4.332 0 0 1 1.7-.34 4.41 4.41 0 0 1 3.346 1.49 5.394 5.394 0 0 1 1.372 3.8 5.242 5.242 0 0 1-1.424 3.751 4.465 4.465 0 0 1-3.359 1.5 4.164 4.164 0 0 1-1.62-.314 5 5 0 0 1-1.49-1.006v4.731h-2.5V437.13zm2.653 2.078a2.64 2.64 0 0 0-1.973.81 2.9 2.9 0 0 0-.784 2.117 2.976 2.976 0 0 0 .784 2.156 2.6 2.6 0 0 0 1.973.823 2.572 2.572 0 0 0 1.947-.836 3.307 3.307 0 0 0 .013-4.26 2.584 2.584 0 0 0-1.96-.81zM134.51 433a1.512 1.512 0 0 1 1.137.483 1.608 1.608 0 0 1 .47 1.163 1.578 1.578 0 0 1-.47 1.15 1.594 1.594 0 0 1-2.274-.013 1.638 1.638 0 0 1-.47-1.176A1.606 1.606 0 0 1 134.51 433zm-1.268 4.13h2.522v10.036h-2.522V437.13zm4.8 0h2.509v1.032a6.169 6.169 0 0 1 1.555-1.006 3.849 3.849 0 0 1 1.424-.288 3.463 3.463 0 0 1 2.535 1.045 3.55 3.55 0 0 1 .876 2.614v6.626h-2.5v-4.391a11.435 11.435 0 0 0-.157-2.392 1.676 1.676 0 0 0-.562-.9 1.557 1.557 0 0 0-.993-.314 1.879 1.879 0 0 0-1.32.51 2.73 2.73 0 0 0-.758 1.411 11.168 11.168 0 0 0-.1 2.039v4.025h-2.509V437.13zm10.141 0h.9a22.976 22.976 0 0 1 .065-2.326 1.9 1.9 0 0 1 .693-1.307 2.567 2.567 0 0 1 1.686-.484 5.274 5.274 0 0 1 1.764.353v1.921a3.349 3.349 0 0 0-.889-.157.96.96 0 0 0-.64.183.848.848 0 0 0-.144.575l-.013 1.255h1.595v2.143h-1.61v7.893h-2.509v-7.906h-.9v-2.143zm11.2-.248a5.32 5.32 0 0 1 2.666.706 5.277 5.277 0 0 1 .026 9.135 5.385 5.385 0 0 1-2.679.693 4.985 4.985 0 0 1-3.685-1.542 5.261 5.261 0 0 1 3.672-8.991zm.039 2.365a2.547 2.547 0 0 0-1.947.823 2.893 2.893 0 0 0-.771 2.091 2.949 2.949 0 0 0 .771 2.117 2.745 2.745 0 0 0 3.907-.013 2.944 2.944 0 0 0 .784-2.117 2.906 2.906 0 0 0-.771-2.091 2.64 2.64 0 0 0-1.973-.81zm8.717 5.293a1.39 1.39 0 0 1 1.019.418 1.42 1.42 0 0 1 0 2.039 1.394 1.394 0 0 1-1.019.431 1.353 1.353 0 0 1-1.019-.431 1.394 1.394 0 0 1-.431-1.019 1.353 1.353 0 0 1 .431-1.019 1.39 1.39 0 0 1 1.019-.418zm4.883-11.54a1.512 1.512 0 0 1 1.137.483 1.608 1.608 0 0 1 .47 1.163 1.578 1.578 0 0 1-.47 1.15 1.594 1.594 0 0 1-2.274-.013 1.638 1.638 0 0 1-.47-1.176 1.549 1.549 0 0 1 .47-1.137 1.57 1.57 0 0 1 1.137-.47zm-1.255 4.13h2.522v10.036h-2.522V437.13zm9.514-.248a5.284 5.284 0 0 1 2.666.706 5.277 5.277 0 0 1 .026 9.135 5.386 5.386 0 0 1-2.679.693 4.985 4.985 0 0 1-3.685-1.542 5.261 5.261 0 0 1 3.672-8.991zm.039 2.365a2.547 2.547 0 0 0-1.947.823 2.893 2.893 0 0 0-.771 2.091 2.949 2.949 0 0 0 .771 2.117 2.745 2.745 0 0 0 3.907-.013 2.944 2.944 0 0 0 .784-2.117 2.906 2.906 0 0 0-.771-2.091 2.64 2.64 0 0 0-1.973-.81z" transform="translate(-13.841 -400.935)"/><path id="Path_4227" data-name="Path 4227" class="cls-2" d="M-100.793 409.185l1.96 2.274 2.274-1.96 2.222-1.921a12 12 0 0 0 1.215-16.871 12 12 0 0 0-16.871-1.215 12 12 0 0 0-1.215 16.871l7.854 9.069c.706.81 1.438 1.686 2.575.758l.039-.026.039-.026c1.085-.993.327-1.856-.379-2.666l-.484-.562-7.358-8.507a8.979 8.979 0 0 1 .915-12.624 8.98 8.98 0 0 1 12.624.915 8.979 8.979 0 0 1-.915 12.624l-2.222 1.921-1.96-2.274-1.96-2.274-1.921-2.222a2.978 2.978 0 0 1 .3-4.156 2.978 2.978 0 0 1 4.156.3 2.967 2.967 0 0 1 .157 3.646c-.013.026-.039.052-.052.078a1.554 1.554 0 0 0 .1 1.895c.993 1.137 2.078.353 2.653-.614a5.977 5.977 0 0 0-.588-6.978 5.966 5.966 0 0 0-8.39-.6 5.966 5.966 0 0 0-.6 8.39l1.921 2.222 1.96 2.274 1.947 2.261z" transform="translate(186.111 -360.588)"/></g></svg>